G75*
%MOIN*%
%OFA0B0*%
%FSLAX24Y24*%
%IPPOS*%
%LPD*%
%AMOC8*
5,1,8,0,0,1.08239X$1,22.5*
%
%ADD10C,0.0000*%
%ADD11C,0.0600*%
%ADD12OC8,0.0660*%
%ADD13C,0.0709*%
%ADD14R,0.0250X0.1750*%
%ADD15C,0.0660*%
%ADD16OC8,0.0700*%
%ADD17C,0.0660*%
%ADD18R,0.0700X0.0700*%
%ADD19C,0.0320*%
%ADD20C,0.0396*%
%ADD21C,0.0100*%
%ADD22C,0.0160*%
%ADD23OC8,0.0768*%
%ADD24C,0.0357*%
D10*
X000500Y000500D02*
X000500Y021500D01*
X025900Y021500D01*
X026500Y020900D01*
X026500Y016400D01*
X027500Y015400D01*
X027500Y002500D01*
X026500Y001500D01*
X026500Y000500D01*
X000500Y000500D01*
X006074Y020482D02*
X006076Y020532D01*
X006082Y020582D01*
X006092Y020631D01*
X006106Y020679D01*
X006123Y020726D01*
X006144Y020771D01*
X006169Y020815D01*
X006197Y020856D01*
X006229Y020895D01*
X006263Y020932D01*
X006300Y020966D01*
X006340Y020996D01*
X006382Y021023D01*
X006426Y021047D01*
X006472Y021068D01*
X006519Y021084D01*
X006567Y021097D01*
X006617Y021106D01*
X006666Y021111D01*
X006717Y021112D01*
X006767Y021109D01*
X006816Y021102D01*
X006865Y021091D01*
X006913Y021076D01*
X006959Y021058D01*
X007004Y021036D01*
X007047Y021010D01*
X007088Y020981D01*
X007127Y020949D01*
X007163Y020914D01*
X007195Y020876D01*
X007225Y020836D01*
X007252Y020793D01*
X007275Y020749D01*
X007294Y020703D01*
X007310Y020655D01*
X007322Y020606D01*
X007330Y020557D01*
X007334Y020507D01*
X007334Y020457D01*
X007330Y020407D01*
X007322Y020358D01*
X007310Y020309D01*
X007294Y020261D01*
X007275Y020215D01*
X007252Y020171D01*
X007225Y020128D01*
X007195Y020088D01*
X007163Y020050D01*
X007127Y020015D01*
X007088Y019983D01*
X007047Y019954D01*
X007004Y019928D01*
X006959Y019906D01*
X006913Y019888D01*
X006865Y019873D01*
X006816Y019862D01*
X006767Y019855D01*
X006717Y019852D01*
X006666Y019853D01*
X006617Y019858D01*
X006567Y019867D01*
X006519Y019880D01*
X006472Y019896D01*
X006426Y019917D01*
X006382Y019941D01*
X006340Y019968D01*
X006300Y019998D01*
X006263Y020032D01*
X006229Y020069D01*
X006197Y020108D01*
X006169Y020149D01*
X006144Y020193D01*
X006123Y020238D01*
X006106Y020285D01*
X006092Y020333D01*
X006082Y020382D01*
X006076Y020432D01*
X006074Y020482D01*
X026271Y014482D02*
X026273Y014523D01*
X026279Y014564D01*
X026289Y014604D01*
X026302Y014643D01*
X026319Y014680D01*
X026340Y014716D01*
X026364Y014750D01*
X026391Y014781D01*
X026420Y014809D01*
X026453Y014835D01*
X026487Y014857D01*
X026524Y014876D01*
X026562Y014891D01*
X026602Y014903D01*
X026642Y014911D01*
X026683Y014915D01*
X026725Y014915D01*
X026766Y014911D01*
X026806Y014903D01*
X026846Y014891D01*
X026884Y014876D01*
X026920Y014857D01*
X026955Y014835D01*
X026988Y014809D01*
X027017Y014781D01*
X027044Y014750D01*
X027068Y014716D01*
X027089Y014680D01*
X027106Y014643D01*
X027119Y014604D01*
X027129Y014564D01*
X027135Y014523D01*
X027137Y014482D01*
X027135Y014441D01*
X027129Y014400D01*
X027119Y014360D01*
X027106Y014321D01*
X027089Y014284D01*
X027068Y014248D01*
X027044Y014214D01*
X027017Y014183D01*
X026988Y014155D01*
X026955Y014129D01*
X026921Y014107D01*
X026884Y014088D01*
X026846Y014073D01*
X026806Y014061D01*
X026766Y014053D01*
X026725Y014049D01*
X026683Y014049D01*
X026642Y014053D01*
X026602Y014061D01*
X026562Y014073D01*
X026524Y014088D01*
X026488Y014107D01*
X026453Y014129D01*
X026420Y014155D01*
X026391Y014183D01*
X026364Y014214D01*
X026340Y014248D01*
X026319Y014284D01*
X026302Y014321D01*
X026289Y014360D01*
X026279Y014400D01*
X026273Y014441D01*
X026271Y014482D01*
D11*
X010584Y002922D02*
X009984Y002922D01*
X009984Y001142D02*
X010584Y001142D01*
X008024Y001142D02*
X007424Y001142D01*
X007424Y002922D02*
X008024Y002922D01*
X004104Y002847D02*
X003504Y002847D01*
X001544Y002847D02*
X000944Y002847D01*
X000944Y001067D02*
X001544Y001067D01*
X003504Y001067D02*
X004104Y001067D01*
D12*
X005054Y001132D03*
X006354Y001232D03*
X006354Y002232D03*
X005054Y003132D03*
X011500Y001500D03*
X012500Y001500D03*
X013500Y001500D03*
X014500Y001500D03*
X015500Y001500D03*
X016500Y001500D03*
X017500Y001500D03*
X018500Y001500D03*
X020500Y001500D03*
X021500Y001500D03*
X022500Y001500D03*
X023500Y001500D03*
X024500Y001500D03*
X025500Y001500D03*
X026746Y002918D03*
X026746Y003918D03*
X026068Y017654D03*
X025068Y017654D03*
X025500Y020500D03*
X024500Y020500D03*
X023500Y020500D03*
X022500Y020500D03*
X021500Y020500D03*
X020500Y020500D03*
X019500Y020500D03*
X018500Y020500D03*
X016900Y020500D03*
X015900Y020500D03*
X014900Y020500D03*
X013900Y020500D03*
X012900Y020500D03*
X011900Y020500D03*
X010900Y020500D03*
X009900Y020500D03*
X008900Y020500D03*
X007900Y020500D03*
D13*
X012704Y017482D02*
X013413Y017482D01*
X013350Y017482D02*
X014058Y017482D01*
X014350Y017482D02*
X015058Y017482D01*
X015350Y017482D02*
X016058Y017482D01*
X016350Y017482D02*
X017058Y017482D01*
X017350Y017482D02*
X018058Y017482D01*
X018350Y017482D02*
X019058Y017482D01*
X019350Y017482D02*
X020058Y017482D01*
X020350Y017482D02*
X021058Y017482D01*
X021350Y017482D02*
X022058Y017482D01*
X022350Y017482D02*
X023058Y017482D01*
X022995Y017482D02*
X023704Y017482D01*
X022704Y011482D02*
X021995Y011482D01*
X022058Y011482D02*
X021350Y011482D01*
X021058Y011482D02*
X020350Y011482D01*
X020058Y011482D02*
X019350Y011482D01*
X019058Y011482D02*
X018350Y011482D01*
X018058Y011482D02*
X017350Y011482D01*
X017058Y011482D02*
X016350Y011482D01*
X016058Y011482D02*
X015350Y011482D01*
X015058Y011482D02*
X014350Y011482D01*
X014058Y011482D02*
X013350Y011482D01*
X013058Y011482D02*
X012350Y011482D01*
X012413Y011482D02*
X011704Y011482D01*
X011704Y010482D02*
X012413Y010482D01*
X012350Y010482D02*
X013058Y010482D01*
X013350Y010482D02*
X014058Y010482D01*
X014350Y010482D02*
X015058Y010482D01*
X015350Y010482D02*
X016058Y010482D01*
X016350Y010482D02*
X017058Y010482D01*
X017350Y010482D02*
X018058Y010482D01*
X018350Y010482D02*
X019058Y010482D01*
X019350Y010482D02*
X020058Y010482D01*
X020350Y010482D02*
X021058Y010482D01*
X021350Y010482D02*
X022058Y010482D01*
X021995Y010482D02*
X022704Y010482D01*
X022995Y004482D02*
X023704Y004482D01*
X023058Y004482D02*
X022350Y004482D01*
X022058Y004482D02*
X021350Y004482D01*
X021058Y004482D02*
X020350Y004482D01*
X020058Y004482D02*
X019350Y004482D01*
X019058Y004482D02*
X018350Y004482D01*
X018058Y004482D02*
X017350Y004482D01*
X017058Y004482D02*
X016350Y004482D01*
X016058Y004482D02*
X015350Y004482D01*
X015058Y004482D02*
X014350Y004482D01*
X014058Y004482D02*
X013350Y004482D01*
X013413Y004482D02*
X012704Y004482D01*
D14*
X004804Y013932D03*
X004304Y013932D03*
X003804Y013932D03*
X003304Y013932D03*
X002804Y013932D03*
X002304Y013932D03*
X001804Y013932D03*
X001804Y016732D03*
X002304Y016732D03*
X002804Y016732D03*
X003304Y016732D03*
X003804Y016732D03*
X004304Y016732D03*
X004804Y016732D03*
D15*
X005704Y016482D03*
X006704Y016482D03*
X006704Y017482D03*
X006704Y015482D03*
X005704Y015482D03*
X005704Y014482D03*
X006704Y014482D03*
X004704Y012482D03*
X003704Y012482D03*
X003704Y011482D03*
X004704Y011482D03*
X002704Y011482D03*
X001704Y011482D03*
X002704Y012482D03*
X006404Y003182D03*
X010754Y002082D03*
D16*
X011500Y003000D03*
X012500Y003000D03*
X013500Y003000D03*
X014500Y003000D03*
X015500Y003000D03*
X016500Y003000D03*
X017500Y003000D03*
X018500Y003000D03*
X020500Y003000D03*
X021500Y003000D03*
X022500Y003000D03*
X023500Y003000D03*
X024500Y003000D03*
X025500Y003000D03*
X025550Y010500D03*
X026550Y010500D03*
X026550Y011500D03*
X025550Y011500D03*
X026550Y012500D03*
X025500Y019000D03*
X024500Y019000D03*
X023500Y019000D03*
X022500Y019000D03*
X021500Y019000D03*
X020500Y019000D03*
X019500Y019000D03*
X018500Y019000D03*
X016900Y019000D03*
X015900Y019000D03*
X014900Y019000D03*
X013900Y019000D03*
X012900Y019000D03*
X011900Y019000D03*
X010900Y019000D03*
X009900Y019000D03*
X008900Y019000D03*
X007900Y019000D03*
D17*
X024700Y016500D02*
X024700Y015840D01*
X024700Y015830D02*
X024700Y015170D01*
X024700Y014830D02*
X024700Y014170D01*
X024700Y013830D02*
X024700Y013170D01*
X024700Y013160D02*
X024700Y012500D01*
X024700Y009500D02*
X024700Y008840D01*
X024700Y008830D02*
X024700Y008170D01*
X024700Y007830D02*
X024700Y007170D01*
X024700Y006830D02*
X024700Y006170D01*
X024700Y006160D02*
X024700Y005500D01*
X026700Y005660D02*
X026700Y005000D01*
X026700Y005670D02*
X026700Y006330D01*
X026700Y006670D02*
X026700Y007330D01*
X026700Y007670D02*
X026700Y008330D01*
X026700Y008340D02*
X026700Y009000D01*
D18*
X025550Y012500D03*
D19*
X024700Y012500D02*
X024700Y013600D01*
X025100Y013200D01*
X026800Y013200D01*
X027200Y012800D01*
X027200Y010100D01*
X026900Y009800D01*
X026600Y009800D01*
X025900Y009100D01*
X025900Y005200D01*
X024700Y005500D02*
X026282Y003918D01*
X026746Y003918D01*
X026746Y002918D02*
X026028Y002200D01*
X016300Y002200D01*
X015500Y003000D01*
X017500Y003000D02*
X017500Y004400D01*
X017582Y004482D01*
X023704Y004482D01*
X023982Y010482D02*
X022704Y010482D01*
X023982Y010482D02*
X024700Y011200D01*
X024700Y012500D01*
X024700Y013600D02*
X024700Y016486D01*
X023704Y017482D01*
D20*
X025900Y005200D03*
D21*
X006704Y015482D02*
X006186Y016000D01*
X005400Y016000D01*
X005200Y016200D01*
X005200Y018200D01*
X005100Y018300D01*
X003400Y018300D01*
X003304Y018204D01*
X003304Y016732D01*
X002804Y016732D02*
X002804Y018404D01*
X003000Y018600D01*
X005400Y018600D01*
X005700Y018300D01*
X005700Y016486D01*
X005704Y016482D01*
X006200Y016986D02*
X006704Y016482D01*
X006200Y016986D02*
X006200Y018400D01*
X005800Y018800D01*
X002400Y018800D01*
X002304Y018704D01*
X002304Y016732D01*
X001804Y016732D02*
X001804Y018804D01*
X002100Y019100D01*
X006000Y019100D01*
X006704Y018396D01*
X006704Y017482D01*
X004804Y016732D02*
X004804Y015382D01*
X005704Y014482D01*
X004804Y013932D02*
X004804Y012582D01*
X004704Y012482D01*
X004200Y012900D02*
X004200Y011986D01*
X004704Y011482D01*
X003704Y011482D02*
X003200Y011986D01*
X003200Y012700D01*
X003304Y012804D01*
X003304Y013932D01*
X002804Y013932D02*
X002804Y012582D01*
X002704Y012482D01*
X002304Y013004D02*
X002100Y012800D01*
X002100Y012086D01*
X002704Y011482D01*
X001704Y011482D02*
X001704Y013932D01*
X001804Y013932D01*
X002304Y013932D02*
X002304Y013004D01*
X003704Y012482D02*
X003804Y012582D01*
X003804Y013932D01*
X004304Y013932D02*
X004304Y013004D01*
X004200Y012900D01*
X003800Y015100D02*
X004304Y015604D01*
X004304Y016732D01*
X003804Y016732D02*
X003804Y015704D01*
X003500Y015400D01*
X002300Y015400D01*
X004600Y002000D02*
X005586Y002000D01*
X006354Y001232D01*
X004600Y002000D02*
X003804Y001204D01*
X003804Y001067D01*
D22*
X024700Y005500D02*
X024700Y009300D01*
X024900Y009500D01*
X025550Y009500D01*
X026550Y010500D01*
D23*
X023704Y009482D03*
X023704Y008482D03*
X022704Y008482D03*
X021704Y008482D03*
X021704Y009482D03*
X022704Y009482D03*
X020704Y009482D03*
X019704Y009432D03*
X019704Y008482D03*
X020704Y008482D03*
X020704Y007482D03*
X019704Y007482D03*
X018704Y007482D03*
X017704Y007482D03*
X016704Y007482D03*
X015704Y007482D03*
X014704Y007482D03*
X013704Y007482D03*
X012704Y007482D03*
X011704Y007482D03*
X010704Y007482D03*
X009704Y007482D03*
X008704Y007482D03*
X007704Y007482D03*
X006704Y007482D03*
X005704Y007482D03*
X004704Y007482D03*
X003704Y007482D03*
X002704Y007482D03*
X001704Y007482D03*
X001704Y006482D03*
X002704Y006482D03*
X003704Y006482D03*
X004704Y006482D03*
X005704Y006482D03*
X006704Y006482D03*
X007704Y006482D03*
X008704Y006482D03*
X009704Y006482D03*
X010704Y006482D03*
X011704Y006482D03*
X012704Y006482D03*
X013704Y006482D03*
X014704Y006482D03*
X015704Y006482D03*
X016704Y006482D03*
X017704Y006482D03*
X018704Y006482D03*
X019704Y006482D03*
X020704Y006482D03*
X021704Y006482D03*
X022704Y006482D03*
X023704Y006482D03*
X023704Y005482D03*
X022704Y005482D03*
X021704Y005482D03*
X020704Y005482D03*
X019704Y005482D03*
X018704Y005482D03*
X017704Y005482D03*
X016704Y005482D03*
X015704Y005482D03*
X014704Y005482D03*
X013704Y005482D03*
X012704Y005482D03*
X011704Y005482D03*
X010704Y005482D03*
X009704Y005482D03*
X008704Y005482D03*
X007704Y005482D03*
X006704Y005482D03*
X005704Y005482D03*
X004704Y005482D03*
X003704Y005482D03*
X003704Y004482D03*
X004704Y004482D03*
X005704Y004482D03*
X006704Y004482D03*
X007704Y004482D03*
X008704Y004482D03*
X009704Y004482D03*
X010704Y004482D03*
X011704Y004482D03*
X011704Y008482D03*
X012704Y008482D03*
X013704Y008482D03*
X014704Y008482D03*
X015704Y008482D03*
X016704Y008482D03*
X017704Y008482D03*
X018704Y008482D03*
X018704Y009482D03*
X017704Y009482D03*
X016704Y009482D03*
X015704Y009482D03*
X014704Y009482D03*
X013704Y009482D03*
X012704Y009482D03*
X011704Y009482D03*
X010704Y009482D03*
X010704Y008482D03*
X009704Y008482D03*
X008704Y008482D03*
X008704Y009482D03*
X009704Y009432D03*
X009704Y010482D03*
X008704Y010482D03*
X007704Y010482D03*
X006704Y010482D03*
X005704Y010482D03*
X004704Y010482D03*
X003704Y010482D03*
X002704Y010482D03*
X001704Y010482D03*
X001704Y009482D03*
X002704Y009482D03*
X003704Y009482D03*
X004704Y009482D03*
X005704Y009482D03*
X006704Y009482D03*
X007704Y009482D03*
X007704Y008482D03*
X006704Y008482D03*
X005704Y008482D03*
X004704Y008482D03*
X003704Y008482D03*
X002704Y008482D03*
X001704Y008482D03*
X005704Y011482D03*
X006704Y011482D03*
X007704Y011482D03*
X008704Y011482D03*
X009704Y011482D03*
X010704Y011482D03*
X010704Y012482D03*
X011704Y012482D03*
X012704Y012482D03*
X013704Y012482D03*
X014704Y012482D03*
X015704Y012482D03*
X016704Y012482D03*
X017704Y012482D03*
X018704Y012482D03*
X019704Y012482D03*
X020704Y012482D03*
X021704Y012482D03*
X022704Y012482D03*
X023704Y012482D03*
X023704Y013482D03*
X023704Y014482D03*
X022704Y014482D03*
X021704Y014482D03*
X021704Y013482D03*
X022704Y013482D03*
X020704Y013482D03*
X019704Y013482D03*
X019704Y014432D03*
X020704Y014482D03*
X020704Y015482D03*
X019704Y015482D03*
X018704Y015482D03*
X017704Y015482D03*
X016704Y015482D03*
X015704Y015482D03*
X014704Y015482D03*
X013704Y015482D03*
X012704Y015482D03*
X011704Y015482D03*
X010704Y015482D03*
X009704Y015482D03*
X008704Y015482D03*
X007704Y015482D03*
X007704Y014482D03*
X008704Y014482D03*
X009704Y014482D03*
X010704Y014482D03*
X011704Y014482D03*
X012704Y014482D03*
X013704Y014482D03*
X014704Y014482D03*
X015704Y014482D03*
X016704Y014482D03*
X017704Y014482D03*
X018704Y014482D03*
X018704Y013482D03*
X017704Y013482D03*
X016704Y013482D03*
X015704Y013482D03*
X014704Y013482D03*
X013704Y013482D03*
X012704Y013482D03*
X011704Y013482D03*
X010704Y013482D03*
X009704Y013482D03*
X008704Y013482D03*
X007704Y013482D03*
X006704Y013482D03*
X005704Y013482D03*
X005704Y012482D03*
X006704Y012482D03*
X007704Y012482D03*
X008704Y012482D03*
X009704Y012482D03*
X010704Y010482D03*
X010704Y016482D03*
X011704Y016482D03*
X012704Y016482D03*
X013704Y016482D03*
X014704Y016482D03*
X015704Y016482D03*
X016704Y016482D03*
X017704Y016482D03*
X018704Y016482D03*
X019704Y016482D03*
X020704Y016482D03*
X021704Y016482D03*
X022704Y016482D03*
X023704Y016482D03*
X023704Y015482D03*
X022704Y015482D03*
X021704Y015482D03*
X011704Y017482D03*
X010704Y017482D03*
X009704Y017482D03*
X008704Y017482D03*
X008704Y016482D03*
X009704Y016482D03*
X007704Y016482D03*
X007704Y017482D03*
X021704Y007482D03*
X022704Y007482D03*
X023704Y007482D03*
D24*
X003800Y015100D03*
X002300Y015400D03*
M02*
