%
M48
M72
T01C0.0197
T02C0.0236
T03C0.0320
T04C0.0394
T05C0.0400
T06C0.0433
T07C0.0472
T08C0.0512
T09C0.0866
T10C0.1260
%
T01
X3800Y15100
X2300Y15400
T02
X25900Y5200
T03
X26746Y3918
X26746Y2918
X26068Y17654
X25068Y17654
X6354Y2232
X5054Y3132
X5054Y1132
X6354Y1232
T04
X11500Y1500
X12500Y1500
X13500Y1500
X14500Y1500
X15500Y1500
X16500Y1500
X17500Y1500
X18500Y1500
X20500Y1500
X21500Y1500
X22500Y1500
X23500Y1500
X24500Y1500
X25500Y1500
X26700Y5000
X26700Y6000
X26700Y7000
X26700Y8000
X26700Y9000
X26550Y10500
X25550Y10500
X25550Y11500
X26550Y11500
X26550Y12500
X25550Y12500
X24700Y12500
X24700Y13500
X24700Y14500
X24700Y15500
X24700Y16500
X24500Y20500
X25500Y20500
X23500Y20500
X22500Y20500
X21500Y20500
X20500Y20500
X19500Y20500
X18500Y20500
X16900Y20500
X15900Y20500
X14900Y20500
X13900Y20500
X12900Y20500
X11900Y20500
X10900Y20500
X9900Y20500
X8900Y20500
X7900Y20500
X24700Y9500
X24700Y8500
X24700Y7500
X24700Y6500
X24700Y5500
T05
X1244Y1067
X1244Y2847
X3804Y2847
X3804Y1067
X7724Y1142
X7724Y2922
X10284Y2922
X11500Y3000
X12500Y3000
X13500Y3000
X14500Y3000
X15500Y3000
X16500Y3000
X17500Y3000
X18500Y3000
X20500Y3000
X21500Y3000
X22500Y3000
X23500Y3000
X24500Y3000
X25500Y3000
X10284Y1142
X9900Y19000
X8900Y19000
X7900Y19000
X10900Y19000
X11900Y19000
X12900Y19000
X13900Y19000
X14900Y19000
X15900Y19000
X16900Y19000
X18500Y19000
X19500Y19000
X20500Y19000
X21500Y19000
X22500Y19000
X23500Y19000
X24500Y19000
X25500Y19000
T06
X6704Y17482
X6704Y16482
X5704Y16482
X5704Y15482
X6704Y15482
X6704Y14482
X5704Y14482
X4704Y12482
X3704Y12482
X3704Y11482
X4704Y11482
X2704Y11482
X1704Y11482
X2704Y12482
X6404Y3182
X10754Y2082
T07
X12704Y4482
X13704Y4482
X14704Y4482
X15704Y4482
X16704Y4482
X17704Y4482
X18704Y4482
X19704Y4482
X20704Y4482
X21704Y4482
X22704Y4482
X23704Y4482
X22704Y10482
X21704Y10482
X20704Y10482
X19704Y10482
X18704Y10482
X17704Y10482
X16704Y10482
X15704Y10482
X14704Y10482
X13704Y10482
X12704Y10482
X11704Y10482
X11704Y11482
X12704Y11482
X13704Y11482
X14704Y11482
X15704Y11482
X16704Y11482
X17704Y11482
X18704Y11482
X19704Y11482
X20704Y11482
X21704Y11482
X22704Y11482
X22704Y17482
X21704Y17482
X20704Y17482
X19704Y17482
X18704Y17482
X17704Y17482
X16704Y17482
X15704Y17482
X14704Y17482
X13704Y17482
X12704Y17482
X23704Y17482
T08
X23704Y16482
X22704Y16482
X21704Y16482
X20704Y16482
X19704Y16482
X18704Y16482
X17704Y16482
X16704Y16482
X15704Y16482
X14704Y16482
X13704Y16482
X12704Y16482
X11704Y16482
X11704Y17482
X10704Y17482
X10704Y16482
X9704Y16482
X8704Y16482
X8704Y17482
X9704Y17482
X7704Y17482
X7704Y16482
X7704Y15482
X8704Y15482
X9704Y15482
X10704Y15482
X11704Y15482
X12704Y15482
X13704Y15482
X14704Y15482
X15704Y15482
X16704Y15482
X17704Y15482
X18704Y15482
X19704Y15482
X20704Y15482
X21704Y15482
X22704Y15482
X23704Y15482
X23704Y14482
X23704Y13482
X22704Y13482
X21704Y13482
X21704Y14482
X22704Y14482
X20704Y14482
X19704Y14432
X19704Y13482
X20704Y13482
X20704Y12482
X19704Y12482
X18704Y12482
X17704Y12482
X16704Y12482
X15704Y12482
X14704Y12482
X13704Y12482
X12704Y12482
X11704Y12482
X10704Y12482
X10704Y11482
X9704Y11482
X8704Y11482
X8704Y12482
X9704Y12482
X9704Y13482
X8704Y13482
X8704Y14482
X9704Y14482
X10704Y14482
X11704Y14482
X12704Y14482
X13704Y14482
X14704Y14482
X15704Y14482
X16704Y14482
X17704Y14482
X18704Y14482
X18704Y13482
X17704Y13482
X16704Y13482
X15704Y13482
X14704Y13482
X13704Y13482
X12704Y13482
X11704Y13482
X10704Y13482
X7704Y13482
X6704Y13482
X5704Y13482
X5704Y12482
X6704Y12482
X7704Y12482
X7704Y11482
X6704Y11482
X5704Y11482
X5704Y10482
X6704Y10482
X7704Y10482
X8704Y10482
X9704Y10482
X10704Y10482
X10704Y9482
X11704Y9482
X12704Y9482
X13704Y9482
X14704Y9482
X15704Y9482
X16704Y9482
X17704Y9482
X18704Y9482
X18704Y8482
X19704Y8482
X20704Y8482
X21704Y8482
X22704Y8482
X23704Y8482
X23704Y9482
X22704Y9482
X21704Y9482
X20704Y9482
X19704Y9432
X17704Y8482
X16704Y8482
X15704Y8482
X14704Y8482
X13704Y8482
X12704Y8482
X11704Y8482
X10704Y8482
X9704Y8482
X8704Y8482
X8704Y9482
X9704Y9432
X7704Y9482
X6704Y9482
X6704Y8482
X7704Y8482
X7704Y7482
X6704Y7482
X5704Y7482
X4704Y7482
X3704Y7482
X2704Y7482
X1704Y7482
X1704Y6482
X2704Y6482
X3704Y6482
X4704Y6482
X5704Y6482
X6704Y6482
X7704Y6482
X8704Y6482
X9704Y6482
X10704Y6482
X11704Y6482
X12704Y6482
X13704Y6482
X14704Y6482
X15704Y6482
X16704Y6482
X17704Y6482
X18704Y6482
X19704Y6482
X20704Y6482
X21704Y6482
X22704Y6482
X23704Y6482
X23704Y5482
X22704Y5482
X21704Y5482
X20704Y5482
X19704Y5482
X18704Y5482
X17704Y5482
X16704Y5482
X15704Y5482
X14704Y5482
X13704Y5482
X12704Y5482
X11704Y5482
X10704Y5482
X9704Y5482
X8704Y5482
X7704Y5482
X6704Y5482
X5704Y5482
X4704Y5482
X3704Y5482
X3704Y4482
X4704Y4482
X5704Y4482
X6704Y4482
X7704Y4482
X8704Y4482
X9704Y4482
X10704Y4482
X11704Y4482
X11704Y7482
X12704Y7482
X13704Y7482
X14704Y7482
X15704Y7482
X16704Y7482
X17704Y7482
X18704Y7482
X19704Y7482
X20704Y7482
X21704Y7482
X22704Y7482
X23704Y7482
X23704Y12482
X22704Y12482
X21704Y12482
X10704Y7482
X9704Y7482
X8704Y7482
X5704Y8482
X5704Y9482
X4704Y9482
X3704Y9482
X3704Y8482
X4704Y8482
X2704Y8482
X1704Y8482
X1704Y9482
X2704Y9482
X2704Y10482
X1704Y10482
X3704Y10482
X4704Y10482
X7704Y14482
T09
X26704Y14482
T10
X6704Y20482
M30
